<?xml version="1.0" encoding="UTF-8" standalone="no"?>
<svg
   height="223.31599"
   width="744.56702"
   version="1.1"
   id="svg4"
   sodipodi:docname="Spotify-Logo.svg"
   xmlns:inkscape="http://www.inkscape.org/namespaces/inkscape"
   xmlns:sodipodi="http://sodipodi.sourceforge.net/DTD/sodipodi-0.dtd"
   xmlns="http://www.w3.org/2000/svg"
   xmlns:svg="http://www.w3.org/2000/svg">
  <defs
     id="defs8" />
  <sodipodi:namedview
     id="namedview6"
     pagecolor="#ffffff"
     bordercolor="#000000"
     borderopacity="0.25"
     inkscape:showpageshadow="2"
     inkscape:pageopacity="0.0"
     inkscape:pagecheckerboard="0"
     inkscape:deskcolor="#d1d1d1"
     showgrid="false" />
  <path
     d="M 177.707,98.987 C 141.715,77.612 82.347,75.647 47.988,86.075 c -5.519,1.674 -11.353,-1.44 -13.024,-6.958 -1.672,-5.521 1.439,-11.352 6.96,-13.029 39.443,-11.972 105.008,-9.66 146.443,14.936 4.964,2.947 6.59,9.356 3.649,14.31 -2.944,4.963 -9.359,6.6 -14.31,3.653 m -1.178,31.658 c -2.525,4.098 -7.883,5.383 -11.975,2.867 C 134.548,115.068 88.791,109.724 53.291,120.5 c -4.603,1.39 -9.466,-1.204 -10.864,-5.8 a 8.717,8.717 0 0 1 5.805,-10.856 c 40.553,-12.307 90.968,-6.347 125.432,14.833 4.092,2.52 5.38,7.88 2.864,11.968 m -13.663,30.404 a 6.954,6.954 0 0 1 -9.569,2.316 C 127.076,147.34 94.073,143.721 55.206,152.599 a 6.955,6.955 0 0 1 -8.331,-5.232 6.95,6.95 0 0 1 5.233,-8.334 c 42.533,-9.722 79.017,-5.538 108.448,12.446 a 6.96,6.96 0 0 1 2.31,9.57 M 111.656,0 C 49.992,0 0,49.99 0,111.656 c 0,61.672 49.992,111.66 111.657,111.66 61.668,0 111.659,-49.988 111.659,-111.66 C 223.316,49.991 173.326,0 111.657,0 m 192.125,103.08 c -19.279,-4.598 -22.71,-7.825 -22.71,-14.605 0,-6.405 6.03,-10.714 14.998,-10.714 8.693,0 17.312,3.273 26.35,10.012 0.274,0.204 0.616,0.285 0.954,0.232 a 1.24,1.24 0 0 0 0.833,-0.515 l 9.413,-13.27 c 0.387,-0.546 0.282,-1.3 -0.24,-1.717 -10.756,-8.63 -22.868,-12.826 -37.025,-12.826 -20.816,0 -35.356,12.49 -35.356,30.365 0,19.167 12.543,25.952 34.217,31.192 18.448,4.25 21.562,7.808 21.562,14.173 0,7.052 -6.295,11.436 -16.427,11.436 -11.253,0 -20.432,-3.79 -30.7,-12.682 a 1.329,1.329 0 0 0 -0.927,-0.302 c -0.34,0.028 -0.65,0.186 -0.866,0.446 l -10.555,12.561 c -0.443,0.521 -0.387,1.3 0.125,1.75 11.947,10.666 26.64,16.3 42.495,16.3 22.432,0 36.925,-12.257 36.925,-31.226 0,-16.032 -9.577,-24.899 -33.066,-30.61 m 100.098,21.486 c 0,13.537 -8.34,22.984 -20.28,22.984 -11.803,0 -20.707,-9.876 -20.707,-22.984 0,-13.107 8.904,-22.984 20.708,-22.984 11.748,0 20.279,9.664 20.279,22.984 m -16.283,-40.5 c -9.723,0 -17.697,3.83 -24.273,11.676 V 86.91 c 0,-0.697 -0.566,-1.265 -1.263,-1.265 H 344.8 c -0.698,0 -1.262,0.568 -1.262,1.265 v 98.136 c 0,0.697 0.564,1.265 1.262,1.265 h 17.26 c 0.698,0 1.264,-0.568 1.264,-1.265 v -30.977 c 6.577,7.382 14.553,10.988 24.273,10.988 18.065,0 36.353,-13.907 36.353,-40.491 0,-26.59 -18.288,-40.5 -36.353,-40.5 m 83.231,63.625 c -12.375,0 -21.704,-9.942 -21.704,-23.125 0,-13.239 9.006,-22.845 21.418,-22.845 12.454,0 21.847,9.942 21.847,23.134 0,13.236 -9.068,22.836 -21.561,22.836 m 0,-63.625 c -23.266,0 -41.492,17.915 -41.492,40.79 0,22.625 18.101,40.351 41.206,40.351 23.348,0 41.631,-17.854 41.631,-40.641 0,-22.71 -18.157,-40.5 -41.345,-40.5 m 91.027,1.579 H 542.86 V 66.223 c 0,-0.697 -0.562,-1.265 -1.26,-1.265 h -17.26 c -0.698,0 -1.266,0.568 -1.266,1.265 v 19.422 h -8.3 c -0.695,0 -1.258,0.568 -1.258,1.265 v 14.835 c 0,0.697 0.563,1.265 1.258,1.265 h 8.3 v 38.388 c 0,15.513 7.721,23.38 22.949,23.38 6.192,0 11.33,-1.279 16.172,-4.024 0.392,-0.22 0.637,-0.644 0.637,-1.095 v -14.128 a 1.264,1.264 0 0 0 -1.829,-1.133 c -3.325,1.673 -6.54,2.445 -10.133,2.445 -5.538,0 -8.01,-2.514 -8.01,-8.15 V 103.01 h 18.996 c 0.698,0 1.259,-0.568 1.259,-1.265 V 86.91 c 0,-0.697 -0.561,-1.265 -1.259,-1.265 m 66.182,0.075 v -2.385 c 0,-7.018 2.69,-10.147 8.725,-10.147 3.6,0 6.49,0.715 9.727,1.795 a 1.262,1.262 0 0 0 1.66,-1.202 V 59.233 a 1.26,1.26 0 0 0 -0.892,-1.21 c -3.42,-1.018 -7.796,-2.063 -14.348,-2.063 -15.945,0 -24.372,8.98 -24.372,25.956 v 3.653 h -8.292 a 1.27,1.27 0 0 0 -1.268,1.264 v 14.912 c 0,0.696 0.57,1.266 1.268,1.266 h 8.292 v 59.212 c 0,0.697 0.563,1.265 1.259,1.265 h 17.261 c 0.697,0 1.265,-0.568 1.265,-1.265 V 103.01 h 16.118 l 24.69,59.196 c -2.804,6.22 -5.56,7.457 -9.322,7.457 -3.042,0 -6.244,-0.908 -9.519,-2.699 a 1.29,1.29 0 0 0 -1.005,-0.094 c -0.33,0.116 -0.607,0.361 -0.747,0.681 l -5.85,12.836 a 1.255,1.255 0 0 0 0.542,1.633 c 6.108,3.308 11.623,4.72 18.436,4.72 12.747,0 19.792,-5.937 26.004,-21.91 l 29.948,-77.388 a 1.264,1.264 0 0 0 -1.172,-1.723 h -17.97 a 1.27,1.27 0 0 0 -1.197,0.848 L 678.87,139.15 658.706,86.532 a 1.259,1.259 0 0 0 -1.179,-0.813 z M 589.67,85.645 h -17.263 c -0.696,0 -1.264,0.568 -1.264,1.265 v 75.312 c 0,0.697 0.568,1.265 1.264,1.265 h 17.263 c 0.696,0 1.265,-0.568 1.265,-1.265 V 86.91 c 0,-0.697 -0.57,-1.265 -1.265,-1.265 m -8.543,-34.292 c -6.839,0 -12.388,5.536 -12.388,12.374 0,6.843 5.549,12.386 12.388,12.386 6.836,0 12.38,-5.543 12.38,-12.386 0,-6.838 -5.544,-12.374 -12.38,-12.374 M 733.063,93.136 H 729.9 v 4.033 h 3.163 c 1.578,0 2.52,-0.772 2.52,-2.017 0,-1.313 -0.942,-2.016 -2.52,-2.016 m 2.049,5.753 3.437,4.811 h -2.897 l -3.093,-4.412 h -2.66 v 4.412 h -2.424 V 90.95 h 5.685 c 2.963,0 4.912,1.515 4.912,4.066 0,2.09 -1.208,3.368 -2.96,3.873 m -2.693,-12.184 c -6.222,0 -10.931,4.947 -10.931,11.004 0,6.054 4.675,10.935 10.868,10.935 6.22,0 10.935,-4.944 10.935,-11.004 0,-6.055 -4.68,-10.935 -10.872,-10.935 m -0.063,23.154 c -6.832,0 -12.148,-5.487 -12.148,-12.15 0,-6.662 5.385,-12.212 12.21,-12.212 6.833,0 12.149,5.486 12.149,12.143 0,6.664 -5.382,12.219 -12.211,12.219"
     fill="#fff"
     id="path2"
     inkscape:export-filename="path2.svg"
     inkscape:export-xdpi="96"
     inkscape:export-ydpi="96" />
</svg>
